PathFileType	4	(X/Y/Z)	SUBJ94_3_walk_RCNL2025.trc
DataRate	CameraRate	NumFrames	NumMarkers	Units	OrigDataRate	OrigDataStartFrame	OrigNumFrames
100	100	14	25	mm	100	277	368
Frame#	Time	R_Shoulder			L_Shoulder			C7			J_Notch			R_Elbow			L_Elbow			R_Wrist			L_Wrist			R_Asis			L_Asis			Sacral			Thoracic			Sternum			R_Thigh_Lateral			R_Knee_Lateral			R_Shank_Lateral			R_Ankle_Lateral			R_Heel			R_Toe			L_Thigh_Lateral			L_Knee_Lateral			L_Shank_Lateral			L_Ankle_Lateral			L_Heel			L_Toe		
		X1	Y1	Z1	X2	Y2	Z2	X3	Y3	Z3	X4	Y4	Z4	X5	Y5	Z5	X6	Y6	Z6	X7	Y7	Z7	X8	Y8	Z8	X9	Y9	Z9	X10	Y10	Z10	X11	Y11	Z11	X12	Y12	Z12	X13	Y13	Z13	X14	Y14	Z14	X15	Y15	Z15	X16	Y16	Z16	X17	Y17	Z17	X18	Y18	Z18	X19	Y19	Z19	X20	Y20	Z20	X21	Y21	Z21	X22	Y22	Z22	X23	Y23	Z23	X24	Y24	Z24	X25	Y25	Z25
277	2.76000000	470.503723	1268.275513	451.980042	476.572021	1268.518188	72.699844	407.465607	1353.124756	261.686584	523.226624	1263.330444	260.176086	444.964813	988.058655	540.358093	425.217621	984.653992	14.278299	551.582672	788.335449	540.508728	549.621826	788.992645	-2.355992	513.827271	885.017578	395.023651	539.261414	877.970154	170.994934	338.091095	936.465027	256.191406	345.045380	1150.512207	257.493896	560.080322	1071.349731	277.818604	550.710876	550.407166	468.855103	582.075317	464.248474	417.092499	497.501007	309.886383	446.946472	393.164429	138.555893	359.095978	360.092529	157.062317	305.536224	501.976776	61.168083	343.421539	474.005096	535.128174	88.063530	457.140106	437.218933	147.169128	443.061584	253.017380	93.164864	406.192719	56.739311	201.784515	364.174622	48.176292	249.492798	528.739990	42.123116	230.522110
278	2.77000000	480.508545	1267.686401	451.947266	488.081543	1268.655396	72.639771	418.363129	1352.832031	261.407227	534.041931	1263.227417	260.145294	451.530365	987.758057	539.856079	440.337799	984.295654	13.561031	553.489929	785.393982	542.743195	568.445129	790.877167	-1.591242	525.141418	885.120422	394.421753	549.468567	877.027100	170.363785	348.820557	936.492737	256.377228	355.913940	1150.218994	256.992828	570.875488	1071.240601	277.622101	565.984985	551.947144	468.015778	597.739319	465.824280	415.840088	521.231567	306.191986	446.197571	427.419189	129.089035	358.736023	393.468262	145.560135	304.989075	540.997864	58.787998	343.817444	477.984589	534.707642	88.060478	459.704865	437.066315	147.217926	443.688568	253.117355	93.178505	406.238373	56.905968	202.064468	364.343842	48.517639	249.925278	528.861267	41.997150	230.468399
279	2.78000000	490.527710	1266.866699	451.924316	499.609650	1268.592529	72.587379	429.287201	1352.336914	261.131439	544.887024	1262.900391	260.093781	458.075226	987.332031	539.465515	455.444214	983.805542	12.839828	555.518036	782.575806	544.993958	587.181274	792.693298	-0.756825	536.591370	884.909180	393.810638	559.646362	875.930481	169.723526	359.573486	936.254089	256.774139	366.798096	1149.720947	256.533966	581.710205	1070.894165	277.359039	580.638062	552.892090	467.240417	612.579041	466.820343	414.606628	544.605164	302.279083	445.491699	462.321442	119.824348	358.431305	427.658966	134.177979	304.478851	580.180786	56.897804	344.305786	482.090454	534.255066	88.044769	462.473450	436.906281	147.269989	444.492706	253.221893	93.226151	406.298370	57.093853	202.369720	364.534668	48.902206	250.411438	528.984619	41.867226	230.417526
280	2.79000000	500.575378	1265.822998	451.918701	511.165863	1268.324341	72.549721	440.246338	1351.644409	260.862579	555.772644	1262.344849	260.026855	464.615845	986.780273	539.190613	470.534302	983.184387	12.107994	557.707123	779.880310	547.257202	605.810486	794.432861	0.141873	548.175415	884.386719	393.202789	569.800842	874.693970	169.080276	370.356171	935.746399	257.388062	377.706482	1149.023193	256.125732	592.590210	1070.302246	277.042847	594.610107	553.190674	466.527008	626.622437	467.215332	413.401398	567.599915	298.235443	444.841125	497.744568	110.962723	358.199127	462.508606	123.124512	304.037628	619.383545	55.660938	344.837372	486.370117	533.768127	88.020157	465.488556	436.730804	147.327332	445.465332	253.320953	93.303696	406.373901	57.306549	202.704025	364.745667	49.330372	250.951477	529.105591	41.734737	230.372391
281	2.80000000	510.666962	1264.567505	451.938995	522.757202	1267.849609	72.535248	451.248230	1350.763794	260.606262	566.708374	1261.561523	259.952087	471.173889	986.106262	539.033997	485.602356	982.436951	11.360612	560.097351	777.306030	549.529572	624.311523	796.090790	1.098085	559.889893	883.564941	392.611176	579.940430	873.333313	168.441025	381.176117	934.974670	258.218719	388.647522	1148.135132	255.777557	603.520325	1069.463013	276.689789	607.858154	552.813782	465.871643	639.914795	467.009430	412.230652	590.196655	294.147827	444.254150	533.515381	102.680138	358.052948	497.810211	112.587151	303.696167	658.429565	55.205227	345.349579	490.869019	533.245422	87.991493	468.789429	436.531555	147.392319	446.605286	253.404999	93.407036	406.466492	57.547970	203.067947	364.974670	49.803791	251.540451	529.221558	41.601082	230.334534
282	2.81000000	520.818787	1263.118530	451.994537	534.388062	1267.172607	72.553490	462.299713	1349.708740	260.370209	577.702759	1260.557129	259.878723	477.776337	985.317505	538.996643	500.639160	981.572083	10.594807	562.728760	774.851440	551.808350	642.661652	797.665375	2.103619	571.729614	882.463989	392.048370	590.076355	871.866272	167.813446	392.042267	933.951477	259.259796	399.629425	1147.070190	255.499542	614.505188	1068.382202	276.318268	620.363953	551.757568	465.269135	652.518311	466.224213	411.097748	612.375916	290.098907	443.734192	569.411194	95.121140	358.000031	533.306641	102.725594	303.480042	697.102112	55.612873	345.774933	495.629517	532.686279	87.963913	472.411926	436.300354	147.466919	447.922211	253.465607	93.532196	406.577545	57.822643	203.458145	365.218262	50.326073	252.167496	529.332275	41.468166	230.303726
283	2.82000000	531.047729	1261.499390	452.095154	546.060181	1266.302979	72.614601	473.406647	1348.497070	260.163910	588.763000	1259.344604	259.817627	484.455078	984.425293	539.078064	515.631714	980.602539	9.809938	565.641357	772.515228	554.091370	660.836304	799.158081	3.148867	583.688843	881.111694	391.526093	600.223145	870.312134	167.205597	402.965057	932.697021	260.499054	410.660095	1145.845581	255.302231	625.549255	1067.073120	275.948120	632.139648	550.045898	464.713318	664.510376	464.901672	410.003510	634.115356	286.163910	443.279327	605.160461	88.393204	358.039948	568.695068	93.666405	303.405823	735.143127	56.911949	346.048981	500.689636	532.091614	87.942162	476.388824	436.029846	147.552063	449.437317	253.496063	93.675262	406.708527	58.136127	203.866837	365.471588	50.903515	252.815567	529.440002	41.338638	230.278061
284	2.83000000	541.370972	1259.738403	452.250854	557.772400	1265.255249	72.728966	484.573792	1347.150146	259.998444	599.894775	1257.943481	259.780792	491.246643	983.444580	539.276367	530.563049	979.545349	9.007712	568.874908	770.296875	556.377075	678.809174	800.573456	4.222836	595.761475	879.542114	391.054718	610.398376	868.691345	166.625793	413.956207	931.238525	261.918457	421.747253	1144.482422	255.196198	636.657654	1065.557251	275.599915	643.231934	547.731201	464.197266	675.981445	463.102356	408.946899	655.386108	282.407806	442.882355	640.448120	82.562393	358.163361	603.634766	85.499016	303.478241	772.257629	59.070435	346.117737	506.082336	531.463867	87.929939	480.750397	435.713806	147.647018	451.182190	253.492126	93.831932	406.860901	58.495556	204.281616	365.728302	51.545925	253.461609	529.549316	41.215767	230.254028
285	2.84000000	551.805481	1257.868286	452.471436	569.521118	1264.049561	72.906807	495.804718	1345.693237	259.886047	611.102600	1256.379883	259.780945	498.191406	982.393738	539.588867	545.412659	978.421021	8.192202	572.469025	768.196991	558.664062	696.552307	801.918976	5.313266	607.941772	877.794861	390.643188	620.622803	867.025085	166.082443	425.028412	929.609619	263.494629	432.898193	1143.004883	255.191742	647.835938	1063.864136	275.294037	653.723267	544.894104	463.713165	687.031372	460.902496	407.925812	676.150146	278.882904	442.531219	674.925171	77.651024	358.352020	637.758911	78.273796	303.688416	808.123230	61.993832	345.942505	511.835144	530.806824	87.929504	485.524780	435.347687	147.748932	453.195557	253.452759	93.996956	407.036469	58.910336	204.685669	365.981293	52.267563	254.077301	529.666809	41.102886	230.227097
286	2.85000000	562.367798	1255.925171	452.766235	581.300476	1262.711060	73.157722	507.101929	1344.154053	259.839630	622.389465	1254.685303	259.831055	505.332703	981.293701	540.012085	560.156311	977.253296	7.369800	576.463043	766.217499	560.951324	714.036255	803.204498	6.406781	620.224182	875.913696	390.298767	630.919250	865.335205	165.584061	436.195007	927.849365	265.199371	444.119720	1141.439697	255.298462	659.090454	1062.030273	275.050171	663.729431	541.641113	463.252808	697.765259	458.390381	406.938080	696.358582	275.626801	442.210083	708.223083	73.637825	358.579559	670.688782	72.002457	304.014008	842.404175	65.527214	345.503052	517.970825	530.125793	87.941383	490.738739	434.928680	147.852524	455.519409	253.380936	94.163551	407.238129	59.392921	205.058334	366.223938	53.088154	254.630386	529.800354	41.002514	230.192474
287	2.86000000	573.073486	1253.947876	453.143738	593.102539	1261.269043	73.490379	518.466736	1342.563110	259.872314	633.756836	1252.897095	259.943939	512.715759	980.167725	540.541992	574.766785	976.068665	6.549095	580.895874	764.361847	563.237885	731.230316	804.441833	7.489119	632.603760	873.945740	390.027435	641.312317	863.643433	165.139282	447.469208	926.000793	267.000305	455.418091	1139.816162	255.524933	670.428284	1060.098633	274.886475	673.394653	538.100037	462.807678	708.288208	455.662079	405.982483	715.950562	272.661560	441.900970	739.970764	70.460938	358.813507	702.051086	66.660988	304.420624	874.768860	69.462349	344.798035	524.508240	529.427429	87.964264	496.418488	434.456024	147.950027	458.194855	253.284195	94.322929	407.471008	59.959690	205.376114	366.452209	54.033962	255.086472	529.958069	40.915188	230.146133
288	2.87000000	583.936707	1251.976562	453.611237	604.917908	1259.756958	73.912140	529.899414	1340.952393	259.996979	645.205139	1251.056519	260.131805	520.386475	979.040588	541.174377	589.214355	974.895569	5.740673	585.805786	762.634796	565.522675	748.103027	805.643951	8.545426	645.075989	871.940186	389.833771	651.827209	861.971436	164.756927	458.863495	924.109985	268.861694	466.798676	1138.164795	255.878281	681.856873	1058.116943	274.819092	682.882385	534.414062	462.369934	718.700317	452.816895	405.059906	734.855103	269.993835	441.585541	769.814636	68.023964	359.018066	731.496277	62.194939	304.865021	904.909607	73.549850	343.843536	531.464417	528.718811	87.995026	502.590790	433.930695	148.031235	461.259064	253.175201	94.464119	407.743652	60.631817	205.614044	366.667480	55.138836	255.411438	530.147217	40.838257	230.085938
289	2.88000000	594.970154	1250.052002	454.174561	616.736084	1258.210938	74.428780	541.398987	1339.354858	260.225647	656.733276	1249.207764	260.405640	528.390137	977.937683	541.904968	603.467590	973.763428	4.956859	591.230164	761.042572	567.804260	764.622437	806.824432	9.560595	657.636475	869.947510	389.721466	662.488342	860.340515	164.446030	470.388794	922.224243	270.745605	478.265839	1136.517212	256.363892	693.383606	1056.136353	274.861542	692.364319	530.733765	461.933319	729.091309	449.952606	404.174072	752.993713	267.615875	441.247253	797.438416	66.204666	359.157745	758.716736	58.526653	305.299622	932.562256	77.515991	342.670471	538.856812	528.007629	88.028870	509.283905	433.355408	148.083939	464.743195	253.071930	94.574226	408.069946	61.436104	205.747543	366.879761	56.445068	255.574142	530.372925	40.764912	230.012756
290	2.89000000	606.184387	1248.214233	454.837585	628.545898	1256.669189	75.044273	552.963562	1337.803833	260.568939	668.339050	1247.396851	260.774963	536.770081	976.884766	542.729431	617.494202	972.702148	4.211397	597.205231	759.592407	570.080688	780.756744	807.996521	10.519653	670.280579	868.018372	389.693329	673.318115	858.771240	164.215881	482.053864	920.390747	272.612885	489.822662	1134.905518	256.985107	705.015381	1054.209717	275.024231	702.007019	527.208496	461.494690	739.535706	447.161346	403.332245	770.285706	265.508240	440.873627	822.582397	64.865692	359.201355	783.463562	55.563736	305.677673	957.524231	81.082893	341.320740	546.705627	527.301025	88.059532	516.528687	432.734253	148.094406	468.672180	252.997574	94.639053	408.470856	62.405678	205.754425	367.111328	58.003925	255.549332	530.637207	40.683708	229.931198
